<?xml version="1.0" encoding="UTF-8"?><svg id="b" xmlns="http://www.w3.org/2000/svg" width="512" height="512" viewBox="0 0 512 512"><defs><style>.d{fill:#fff;}.e{fill:#00744b;}</style></defs><g id="c"><circle class="e" cx="256" cy="256" r="256"/><path class="d" d="M154.8,206.01h-39.83l-18.98,22.66c6.4,3.34,7.82,7.16,7.82,14.08v60.6h22.54v-62.75c0-5.25-2.14-10.5-4.99-13.6h30.11c7.36,0,10.92,8.12,10.92,13.6v62.76h22.54v-65.15c0-16.94-13.29-32.21-30.12-32.21M335.37,206.01v66.82c0,8.11-4.03,13.36-11.15,17.9l17.78,15.27c6.16-3.58,10.92-9.07,13.76-15.51,13.75,0,24.66,6.44,39.61,15.27l20.62-24.82v-74.93h-22.52v76.84c-9.02-7.4-21.58-10.97-35.58-10.97v-65.87h-22.54.01ZM267.7,219.85l-26.08,62.99c-5.93-1.91-11.39-6.69-11.39-13.37,0-9.55,18.26-25.29,18.26-38.17,0-14.56-11.39-25.29-22.54-25.29h-6.64l-10.2,20.75h7.83c6.17,0,9.49,3.11,9.49,9.3,0,7.63-18.73,22.67-18.73,38.17,0,14.55,14.93,26.48,25.85,29.12h20.62l28.94-73.5v73.5h21.82v-97.33h-17.55c-9.02,0-15.42,3.34-19.69,13.83"/></g></svg>